<svg version="1" xmlns="http://www.w3.org/2000/svg" width="1026.667" height="1026.667" viewBox="0 0 770.000000 770.000000"><path d="M155.5 2c-28.9 2.4-59.3 18.2-78 40.5C60.7 62.6 51.6 83.5 49 108c-1.3 13-1.3 541 0 554 2.6 24.5 11.7 45.4 28.5 65.5C96.7 750.4 126 765.4 157 768c16.4 1.4 538.3 1.3 544.8 0 5.9-1.3 11.2-5.5 15-11.8 2.6-4.5 2.7-5.4 3-20.2.3-9.4-.1-17.5-.8-20.7-1.4-6.4-6.5-12.5-13.6-16.2-4.4-2.4-5-3.2-6.1-7.4-4.5-18.4-4.5-67 0-85.4 1.1-4.2 1.7-5 6.1-7.4 7.1-3.7 12.2-9.8 13.6-16.2.8-3.8 1-82.4.8-284.7l-.3-279.5-2.7-4.7c-3.8-6.3-9.1-10.5-15-11.8C696.1.8 170.2.8 155.5 2zm491 299v226.5l-245.5.6c-245.5.5-245.5.5-255 2.6-5.2 1.2-12.4 3.1-16 4.2-3.6 1.1-7.1 2.1-7.7 2.1-1 0-1.3-43.1-1.3-212.3 0-190.9.2-212.9 1.6-217.8 4.3-14.7 15.7-26.3 30.4-31 5.2-1.7 18.8-1.8 249.5-1.6l244 .2V301zm-9.1 305.5c0 2.2-.6 12.7-1.3 23.2-1.1 15.9-1.1 22.7 0 38.5.7 10.6 1.3 21.1 1.3 23.3l.1 4-237.5.3c-176.9.2-238.9 0-243-.9-31.8-6.6-46.5-45-27.9-72.8 4.5-6.8 8.7-10.6 16.1-14.6 10.3-5.6-4.4-5.3 253.3-5.2l239 .2-.1 4z"/><path d="M250.5 169.1c-5.2 1.3-9.1 5.1-10.4 10.4-1.4 5.7-1.4 45.7 0 51 1.6 5.7 5.2 9.2 11.1 10.4 6.8 1.5 306.8 1.5 313.6 0 5.9-1.2 9.5-4.7 11.1-10.4 1.4-5.3 1.4-45.7 0-51-1.6-5.7-5.2-9.2-11.1-10.4-6.3-1.4-308.5-1.3-314.3 0zM249.5 289.5c-9.8 2.6-10.7 6.1-10.3 37.8.3 27.4.8 29.5 7.6 32.5 3.4 1.6 16.2 1.7 161.2 1.7 175.3 0 162.8.5 166.7-6.7 1.6-3 1.8-6.1 1.8-29.8 0-23.7-.2-26.8-1.8-29.8-3.9-7.2 8.3-6.7-164.7-6.9-127.2-.1-156.4.1-160.5 1.2z"/></svg>